<?xml version="1.0" encoding="UTF-8"?><svg id="_ëîé_1" xmlns="http://www.w3.org/2000/svg" xmlns:xlink="http://www.w3.org/1999/xlink" viewBox="0 0 6137.96 3780"><defs><style>.cls-1{fill:#fff;}.cls-2{fill:#690ec9;stroke:#690ec9;}.cls-2,.cls-3,.cls-4,.cls-5{stroke-linejoin:round;}.cls-2,.cls-4,.cls-5{stroke-linecap:round;}.cls-2,.cls-5,.cls-6,.cls-7{stroke-width:18px;}.cls-3,.cls-4{stroke:#fff;stroke-width:13.5px;}.cls-3,.cls-4,.cls-5,.cls-6,.cls-7{fill:none;}.cls-5,.cls-6{stroke:#1d1d1b;}.cls-8{fill:url(#_åçûìÿííûé_ãðàäèåíò_6);}.cls-6,.cls-7{stroke-miterlimit:10;}.cls-7{stroke:#1e0f00;}.cls-9{fill:#1d1d1b;}</style><linearGradient id="_åçûìÿííûé_ãðàäèåíò_6" x1="5188.13" y1="3705.32" x2="6367.8" y2="74.68" gradientTransform="matrix(1, 0, 0, 1, 0, 0)" gradientUnits="userSpaceOnUse"><stop offset="0" stop-color="#2fac66"/><stop offset="1" stop-color="#fffa3f"/></linearGradient></defs><rect class="cls-7" x="45" y="1971.02" width="126" height="198" rx="18" ry="18"/><circle class="cls-5" cx="4068" cy="1710.02" r="99"/><polyline class="cls-5" points="4113 1683.02 4059 1737.02 4023 1701.02"/><circle class="cls-5" cx="5148" cy="1710.02" r="99"/><line class="cls-5" x1="5121" y1="1737.02" x2="5175" y2="1683.02"/><line class="cls-5" x1="5121" y1="1683.02" x2="5175" y2="1737.02"/><circle class="cls-5" cx="4428" cy="1710.02" r="99"/><line class="cls-5" x1="4392" y1="1710.02" x2="4464" y2="1710.02"/><line class="cls-5" x1="4428" y1="1674.02" x2="4428" y2="1746.02"/><circle class="cls-5" cx="4788" cy="1710.02" r="99"/><line class="cls-5" x1="4752" y1="1710.02" x2="4824" y2="1710.02"/><rect class="cls-5" x="3969" y="2331.02" width="198" height="198" rx="36" ry="36"/><rect class="cls-5" x="5049" y="2331.02" width="198" height="198" rx="36" ry="36"/><rect class="cls-5" x="4329" y="2331.02" width="198" height="198" rx="36" ry="36"/><rect class="cls-5" x="4689" y="2331.02" width="198" height="198" rx="36" ry="36"/><polyline class="cls-5" points="4113 2403.02 4059 2457.02 4023 2421.02"/><line class="cls-5" x1="5121" y1="2457.02" x2="5175" y2="2403.02"/><line class="cls-5" x1="5121" y1="2403.02" x2="5175" y2="2457.02"/><line class="cls-5" x1="4392" y1="2430.02" x2="4464" y2="2430.02"/><line class="cls-5" x1="4428" y1="2394.02" x2="4428" y2="2466.02"/><line class="cls-5" x1="4752" y1="2430.02" x2="4824" y2="2430.02"/><line class="cls-5" x1="99" y1="2007.02" x2="117" y2="2007.02"/><circle class="cls-9" cx="108" cy="2133.02" r="9"/><line class="cls-5" x1="1494" y1="2493.02" x2="1494" y2="2529.02"/><line class="cls-5" x1="1494" y1="2457.02" x2="1494" y2="2331.02"/><line class="cls-5" x1="1602" y1="2448.02" x2="1602" y2="2529.02"/><line class="cls-5" x1="1602" y1="2412.02" x2="1602" y2="2331.02"/><line class="cls-5" x1="1548" y1="2349.02" x2="1548" y2="2331.02"/><line class="cls-5" x1="1548" y1="2385.02" x2="1548" y2="2529.02"/><rect class="cls-5" x="3609" y="549.02" width="198" height="162" rx="18" ry="18"/><polyline class="cls-5" points="3807 567.02 3708 639.02 3609 567.02"/><rect class="cls-5" x="387" y="1971.02" width="162" height="198" rx="18" ry="18"/><line class="cls-5" x1="459" y1="2007.02" x2="477" y2="2007.02"/><circle class="cls-9" cx="468" cy="2133.02" r="9"/><circle class="cls-5" cx="4446" cy="252.02" r="81"/><line class="cls-5" x1="4329" y1="369.02" x2="4388.76" y2="309.26"/><circle class="cls-5" cx="4806" cy="252.02" r="81"/><line class="cls-5" x1="4770" y1="252.02" x2="4842" y2="252.02"/><line class="cls-5" x1="4806" y1="216.02" x2="4806" y2="288.02"/><line class="cls-5" x1="4689" y1="369.02" x2="4748.76" y2="309.26"/><circle class="cls-5" cx="5166" cy="252.02" r="81"/><line class="cls-5" x1="5130" y1="252.02" x2="5202" y2="252.02"/><line class="cls-5" x1="5049" y1="369.02" x2="5108.76" y2="309.26"/><circle class="cls-5" cx="2628" cy="1350.02" r="99"/><line class="cls-5" x1="2607.75" y1="1329.77" x2="2648.25" y2="1370.27"/><polygon class="cls-5" points="2607.75 1329.77 2668.5 1309.52 2648.25 1370.27 2587.5 1390.52 2607.75 1329.77"/><circle class="cls-5" cx="5148" cy="2070.02" r="99"/><polyline class="cls-5" points="5112 2061.02 5148 2097.02 5184 2061.02"/><circle class="cls-5" cx="4068" cy="2070.02" r="99"/><polyline class="cls-5" points="4104 2079.02 4068 2043.02 4032 2079.02"/><circle class="cls-5" cx="4788" cy="2070.02" r="99"/><polyline class="cls-5" points="4779 2106.02 4815 2070.02 4779 2034.02"/><circle class="cls-5" cx="4428" cy="2070.02" r="99"/><polyline class="cls-5" points="4437 2034.02 4401 2070.02 4437 2106.02"/><path class="cls-5" d="M1148.29,707.91l-38.18-38.18c-28.14-28.14-28.14-73.68,0-101.82l38.18,38.18-12.73,12.73c-7.04,7.03-7.04,18.42,0,25.46l38.18,38.18c7.03,7.04,18.42,7.04,25.46,0l12.73-12.73,38.18,38.18c-28.14,28.14-73.68,28.14-101.82,0Z"/><path class="cls-5" d="M1197,549.02c39.76,0,72,32.24,72,72"/><path class="cls-5" d="M1233,621.02c0-19.9-16.1-36-36-36"/><path class="cls-5" d="M1868.29,707.91l-38.18-38.18c-28.14-28.14-28.14-73.68,0-101.82l38.18,38.18-12.73,12.73c-7.04,7.03-7.04,18.42,0,25.46l38.18,38.18c7.03,7.04,18.42,7.04,25.46,0l12.73-12.73,38.18,38.18c-28.14,28.14-73.68,28.14-101.82,0Z"/><polyline class="cls-5" points="1971 621.01 1917 621.02 1917 567.02"/><line class="cls-5" x1="1917" y1="621.02" x2="1989" y2="549.01"/><path class="cls-5" d="M2228.29,707.91l-38.18-38.18c-28.14-28.14-28.14-73.68,0-101.82l38.18,38.18-12.73,12.73c-7.04,7.03-7.04,18.42,0,25.46l38.18,38.18c7.03,7.04,18.42,7.04,25.46,0l12.73-12.73,38.18,38.18c-28.14,28.14-73.68,28.14-101.82,0Z"/><polyline class="cls-5" points="2295 549.02 2349 549.01 2349 603.01"/><line class="cls-5" x1="2349" y1="549.01" x2="2277" y2="621.02"/><circle class="cls-5" cx="108" cy="1665.02" r="54"/><path class="cls-5" d="M9,1809.02c0-49.75,26.28-90,81-90h36c54.72,0,81,40.25,81,90"/><circle class="cls-5" cx="54.01" cy="351.02" r="18"/><circle class="cls-5" cx="180.01" cy="351.02" r="18"/><path class="cls-5" d="M180.01,333.02H54.01s-18-162-17.99-162H9.01"/><polyline class="cls-5" points="40 207.02 206.99 225.02 198.99 297.02 50.01 297.02"/><circle class="cls-5" cx="414.01" cy="351.02" r="18"/><circle class="cls-5" cx="540.01" cy="351.02" r="18"/><path class="cls-5" d="M540.01,333.02h-126s-18-162-17.99-162h-27"/><polyline class="cls-5" points="400 207.02 566.99 225.02 558.99 297.02 410.01 297.02"/><line class="cls-5" x1="410.01" y1="252.02" x2="562.96" y2="261.26"/><line class="cls-5" x1="486.48" y1="297.02" x2="486.48" y2="216.34"/><line class="cls-5" x1="450.48" y1="297.02" x2="444.27" y2="211.79"/><line class="cls-5" x1="522.48" y1="297.02" x2="526.11" y2="220.61"/><rect class="cls-5" x="747" y="225.02" width="162" height="144"/><path class="cls-5" d="M783,243.02v-36c0-19.9,16.1-36,36-36h18c19.9,0,36,16.1,36,36v36"/><rect class="cls-5" x="1467" y="225.02" width="162" height="144"/><path class="cls-5" d="M1503,243.02v-36c0-19.9,16.1-36,36-36h18c19.9,0,36,16.1,36,36v36"/><line class="cls-5" x1="1467" y1="315.02" x2="1629" y2="315.02"/><polygon class="cls-5" points="1998 369.02 1989 225.02 1827 225.02 1818 369.02 1998 369.02"/><path class="cls-5" d="M1863,243.02v-36c0-19.9,16.1-36,36-36h18c19.9,0,36,16.1,36,36v36"/><polygon class="cls-5" points="2718 369.02 2709 225.02 2547 225.02 2538 369.02 2718 369.02"/><path class="cls-5" d="M2583,243.02v-36c0-19.9,16.1-36,36-36h18c19.9,0,36,16.1,36,36v36"/><line class="cls-5" x1="2541.37" y1="315.02" x2="2714.62" y2="315.02"/><polyline class="cls-5" points="5048.81 1309.52 5147.81 1408.52 5246.81 1309.52"/><polyline class="cls-5" points="4167 1390.52 4068 1291.52 3969 1390.52"/><polyline class="cls-5" points="4747.5 1449.02 4846.5 1350.02 4747.5 1251.02"/><polyline class="cls-5" points="4468.5 1251.02 4369.5 1350.02 4468.5 1449.02"/><polyline class="cls-5" points="4167 930.62 4048.2 1049.42 3969 970.22"/><line class="cls-5" x1="5049" y1="1089.02" x2="5247" y2="891.02"/><line class="cls-5" x1="5049" y1="891.02" x2="5247" y2="1089.02"/><line class="cls-5" x1="4329" y1="990.02" x2="4527" y2="990.02"/><line class="cls-5" x1="4428" y1="891.02" x2="4428" y2="1089.02"/><line class="cls-5" x1="4689" y1="990.02" x2="4887" y2="990.02"/><line class="cls-5" x1="2673" y1="621.02" x2="2727" y2="621.02"/><path class="cls-5" d="M2583,621.02v-18c0-9.95,8.05-18,18-18h54c9.95,0,18,8.05,18,18v18h54c0-39.8-32.2-72-72-72h-54c-39.8,0-72,32.2-72,72h54Z"/><line class="cls-5" x1="2565" y1="711.02" x2="2691" y2="711.02"/><circle class="cls-5" cx="2628" cy="652.52" r="27"/><path class="cls-5" d="M2700,621.02l9,72c0,9.95-8.05,18-18,18h-126c-9.95,0-18-8.05-18-18l9-72"/><rect class="cls-5" x="9" y="918.02" width="198" height="144" rx="18" ry="18"/><polyline class="cls-5" points="2898 270.02 2907 360.02 3069 360.02 3078 270.02"/><line class="cls-5" x1="2970" y1="180.02" x2="2988" y2="234.02"/><rect class="cls-5" x="2889" y="234.02" width="198" height="36"/><polyline class="cls-5" points="3258 270.02 3267 360.02 3429 360.02 3438 270.02"/><line class="cls-5" x1="3330" y1="180.02" x2="3348" y2="234.02"/><rect class="cls-5" x="3249" y="234.02" width="198" height="36"/><line class="cls-5" x1="3367.26" y1="297.02" x2="3366" y2="333.02"/><line class="cls-5" x1="3328.74" y1="297.02" x2="3330" y2="333.02"/><line class="cls-5" x1="3404.7" y1="297.02" x2="3402" y2="333.02"/><line class="cls-5" x1="3291.3" y1="297.02" x2="3294" y2="333.02"/><circle class="cls-5" cx="108" cy="1350.02" r="99"/><line class="cls-5" x1="207" y1="1350.02" x2="9" y2="1350.02"/><line class="cls-5" x1="108" y1="1251.02" x2="108" y2="1449.02"/><ellipse class="cls-5" cx="108" cy="1350.02" rx="45" ry="99"/><line class="cls-5" x1="196.19" y1="1305.02" x2="19.84" y2="1305.02"/><line class="cls-5" x1="196.19" y1="1395.02" x2="19.84" y2="1395.02"/><circle class="cls-5" cx="765" cy="2376.02" r="18"/><line class="cls-5" x1="747" y1="2376.02" x2="729" y2="2376.02"/><line class="cls-5" x1="783" y1="2376.02" x2="927" y2="2376.02"/><circle class="cls-5" cx="810" cy="2484.02" r="18"/><line class="cls-5" x1="792" y1="2484.02" x2="729" y2="2484.02"/><line class="cls-5" x1="828" y1="2484.02" x2="927" y2="2484.02"/><circle class="cls-5" cx="891" cy="2430.02" r="18"/><line class="cls-5" x1="909" y1="2430.02" x2="927" y2="2430.02"/><line class="cls-5" x1="873" y1="2430.02" x2="729" y2="2430.02"/><line class="cls-5" x1="1476" y1="2493.02" x2="1512" y2="2493.02"/><line class="cls-5" x1="1530" y1="2385.02" x2="1566" y2="2385.02"/><line class="cls-5" x1="1584" y1="2448.02" x2="1620" y2="2448.02"/><circle class="cls-5" cx="2988" cy="630.02" r="99"/><polyline class="cls-5" points="2988 576.02 2988 630.02 3024 630.02"/><path class="cls-5" d="M1107,1773.02c0,19.9,16.1,36,36,36h90c19.9,0,36-16.1,36-36v-54c0-9.95-8.05-18-18-18h-126c-9.95,0-18,8.05-18,18v54Z"/><path class="cls-5" d="M1125,1701.02v-54c0-19.9,16.1-36,36-36h54c19.9,0,36,16.1,36,36v54"/><line class="cls-5" x1="1188" y1="1755.02" x2="1188" y2="1773.02"/><path class="cls-5" d="M1467,1773.02c0,19.9,16.1,36,36,36h90c19.9,0,36-16.1,36-36v-54c0-9.95-8.05-18-18-18h-126c-9.95,0-18,8.05-18,18v54Z"/><path class="cls-5" d="M1611,1647.02c0-19.9-16.1-36-36-36h-54c-19.9,0-36,16.1-36,36v54"/><line class="cls-5" x1="1548" y1="1755.02" x2="1548" y2="1773.02"/><circle class="cls-5" cx="468" cy="1710.02" r="99"/><circle class="cls-5" cx="468" cy="1683.02" r="36"/><path class="cls-5" d="M530.92,1786.45c-1.68-46.55-29.18-67.44-62.92-67.44s-61.24,20.89-62.92,67.44"/><path class="cls-5" d="M1809,2502.02c0,9.95,8.05,18,18,18h162c9.95,0,18-8.05,18-18v-144h-198v144Z"/><line class="cls-5" x1="1809" y1="2412.02" x2="2007" y2="2412.02"/><line class="cls-5" x1="1926" y1="2376.02" x2="1926" y2="2340.02"/><line class="cls-5" x1="1890" y1="2376.02" x2="1890" y2="2340.02"/><line class="cls-5" x1="1962" y1="2376.02" x2="1962" y2="2340.02"/><line class="cls-5" x1="1854" y1="2376.02" x2="1854" y2="2340.02"/><path class="cls-5" d="M2169,2502.02c0,9.95,8.05,18,18,18h162c9.95,0,18-8.05,18-18v-144h-198v144Z"/><line class="cls-5" x1="2169" y1="2412.02" x2="2367" y2="2412.02"/><line class="cls-5" x1="2286" y1="2376.02" x2="2286" y2="2340.02"/><line class="cls-5" x1="2250" y1="2376.02" x2="2250" y2="2340.02"/><line class="cls-5" x1="2322" y1="2376.02" x2="2322" y2="2340.02"/><line class="cls-5" x1="2214" y1="2376.02" x2="2214" y2="2340.02"/><circle class="cls-9" cx="2214" cy="2448.02" r="9"/><circle class="cls-9" cx="2214" cy="2484.02" r="9"/><circle class="cls-9" cx="2250" cy="2448.02" r="9"/><circle class="cls-9" cx="2250" cy="2484.02" r="9"/><circle class="cls-9" cx="2286" cy="2448.02" r="9"/><circle class="cls-9" cx="2286" cy="2484.02" r="9"/><circle class="cls-9" cx="2322" cy="2448.02" r="9"/><circle class="cls-9" cx="2322" cy="2484.02" r="9"/><path class="cls-5" d="M2889,2502.02c0,9.95,8.05,18,18,18h162c9.95,0,18-8.05,18-18v-144h-198v144Z"/><line class="cls-5" x1="3006" y1="2376.02" x2="3006" y2="2340.02"/><line class="cls-5" x1="2970" y1="2376.02" x2="2970" y2="2340.02"/><line class="cls-5" x1="3042" y1="2376.02" x2="3042" y2="2340.02"/><line class="cls-5" x1="2934" y1="2376.02" x2="2934" y2="2340.02"/><polyline class="cls-5" points="3033 2421.02 2979 2475.02 2943 2439.02"/><path class="cls-5" d="M3249,2502.02c0,9.95,8.05,18,18,18h162c9.95,0,18-8.05,18-18v-144h-198v144Z"/><line class="cls-5" x1="3366" y1="2376.02" x2="3366" y2="2340.02"/><line class="cls-5" x1="3330" y1="2376.02" x2="3330" y2="2340.02"/><line class="cls-5" x1="3402" y1="2376.02" x2="3402" y2="2340.02"/><line class="cls-5" x1="3294" y1="2376.02" x2="3294" y2="2340.02"/><line class="cls-5" x1="3312" y1="2448.02" x2="3384" y2="2448.02"/><line class="cls-5" x1="3348" y1="2412.02" x2="3348" y2="2484.02"/><circle class="cls-5" cx="468" cy="1332.02" r="36"/><path class="cls-5" d="M387,1332.02c0-44.74,36.26-81,81-81s81,36.26,81,81c0,51.75-45,83.15-81,117-36-33.85-81-65.25-81-117Z"/><polygon class="cls-5" points="2187 2691.02 2187 2889.02 2268 2853.02 2349 2889.02 2349 2691.02 2187 2691.02"/><circle class="cls-5" cx="2988" cy="1710.02" r="36"/><path class="cls-5" d="M3087,1710.02c-28.69-45.56-55.13-63-99-63s-70.31,17.44-99,63"/><path class="cls-5" d="M2889,1710.02c28.69,45.56,55.12,63,99,63s70.31-17.44,99-63"/><path class="cls-5" d="M3373.46,1684.56c6.51,6.51,10.54,15.51,10.54,25.46,0,19.88-16.12,36-36,36-9.94,0-18.94-4.03-25.46-10.54"/><path class="cls-5" d="M3312,1710.02c0-19.88,16.12-36,36-36"/><path class="cls-5" d="M3372.74,1649.27c-7.64-1.53-15.83-2.25-24.74-2.25"/><path class="cls-5" d="M3296.93,1761.09c14.64,8.29,31.04,11.93,51.07,11.93,43.87,0,70.31-17.44,99-63-15.59-24.76-30.51-41.21-47.93-51.08"/><path class="cls-5" d="M3276.52,1745.5c-9.37-9.17-18.33-20.88-27.52-35.48,28.69-45.56,55.12-63,99-63"/><line class="cls-5" x1="3276" y1="1782.02" x2="3420" y2="1638.02"/><path class="cls-5" d="M3780,1341.02c0,39.76-32.24,72-72,72s-72-32.24-72-72"/><line class="cls-5" x1="3708" y1="1413.02" x2="3708" y2="1449.02"/><line class="cls-5" x1="3672" y1="1449.02" x2="3744" y2="1449.02"/><path class="cls-5" d="M3672,1287.02c0-19.88,16.12-36,36-36s36,16.12,36,36v54c0,19.88-16.12,36-36,36s-36-16.12-36-36v-54Z"/><polyline class="cls-5" points="4158 3465.02 4104 3465.02 4104 3411.02"/><polyline class="cls-5" points="4086 3555.02 4158 3555.02 4158 3465.02 4104 3411.02 4050 3411.02 4050 3483.02"/><polyline class="cls-5" points="4086 3519.02 4032 3519.02 4032 3465.02"/><polygon class="cls-5" points="3978 3465.02 3978 3609.02 4086 3609.02 4086 3519.02 4032 3465.02 3978 3465.02"/><path class="cls-5" d="M2547,2709.02c-9.95,0-18,8.05-18,18v126c0,9.95,8.05,18,18,18h162c9.95,0,18-8.05,18-18v-108c0-9.95-8.05-18-18-18h-90l-18-18h-54Z"/><path class="cls-5" d="M2907,2709.02c-9.95,0-18,8.05-18,18v126c0,9.95,8.05,18,18,18h162c9.95,0,18-8.05,18-18v-108c0-9.95-8.05-18-18-18h-90l-18-18h-54Z"/><path class="cls-5" d="M3267,2709.02c-9.95,0-18,8.05-18,18v126c0,9.95,8.05,18,18,18h162c9.95,0,18-8.05,18-18v-108c0-9.95-8.05-18-18-18h-90l-18-18h-54Z"/><line class="cls-5" x1="2952" y1="2799.02" x2="3024" y2="2799.02"/><line class="cls-5" x1="2988" y1="2763.02" x2="2988" y2="2835.02"/><line class="cls-5" x1="3321" y1="2826.02" x2="3375" y2="2772.02"/><line class="cls-5" x1="3321" y1="2772.02" x2="3375" y2="2826.02"/><circle class="cls-5" cx="5148" cy="3150.02" r="99"/><line class="cls-5" x1="5078" y1="3220.02" x2="5218" y2="3080.01"/><path class="cls-9" d="M1194.36,2122.17c3.51,3.51,3.51,9.21,0,12.73-3.52,3.51-9.21,3.51-12.73,0-3.51-3.52-3.51-9.21,0-12.73s9.21-3.52,12.73,0Z"/><path class="cls-5" d="M1213.46,2103.08c-14.07-14.07-36.84-14.07-50.91,0"/><path class="cls-5" d="M1238.91,2077.62c-28.14-28.14-73.68-28.14-101.82,0"/><path class="cls-5" d="M1264.37,2052.16c-42.21-42.21-110.52-42.21-152.73,0"/><path class="cls-5" d="M1647,2756.27c0-27.34-22.16-49.5-49.5-49.5-20.99,0-42.3,13.06-49.5,31.5-7.2-18.44-28.51-31.5-49.5-31.5-27.34,0-49.5,22.16-49.5,49.5,0,43.88,53.44,88.31,99,117,45.56-28.69,99-73.12,99-117Z"/><polygon class="cls-5" points="1908 2695.52 1938.59 2757.73 2007 2767.71 1957.5 2816.14 1969.19 2884.52 1908 2852.23 1846.81 2884.52 1858.5 2816.14 1809 2767.71 1877.41 2757.73 1908 2695.52"/><path class="cls-5" d="M2223,1629.02c0-9.95,8.05-18,18-18h90c9.95,0,18,8.05,18,18v162c0,9.95-8.05,18-18,18h-90c-9.95,0-18-8.05-18-18"/><polyline class="cls-5" points="2241 1674.02 2277 1710.02 2241 1746.02"/><line class="cls-5" x1="2277" y1="1710.02" x2="2187" y2="1710.02"/><path class="cls-5" d="M2673,1791.02c0,9.95-8.05,18-18,18h-90c-9.95,0-18-8.05-18-18v-162c0-9.95,8.05-18,18-18h90c9.95,0,18,8.05,18,18"/><polyline class="cls-5" points="2673 1674.02 2709 1710.02 2673 1746.02"/><line class="cls-5" x1="2709" y1="1710.02" x2="2619" y2="1710.02"/><line class="cls-2" x1="378" y1="3069.02" x2="558" y2="3069.02"/><line class="cls-2" x1="378" y1="3123.02" x2="558" y2="3123.02"/><line class="cls-2" x1="378" y1="3177.02" x2="558" y2="3177.02"/><line class="cls-2" x1="378" y1="3231.02" x2="558" y2="3231.02"/><rect class="cls-5" x="1458.09" y="3060.02" width="72" height="72"/><rect class="cls-5" x="1566.09" y="3060.02" width="72" height="72"/><rect class="cls-5" x="1458.09" y="3168.02" width="72" height="72"/><rect class="cls-5" x="1566.09" y="3168.02" width="72" height="72"/><rect class="cls-5" x="1098.09" y="3060.02" width="180" height="36"/><rect class="cls-5" x="1098.09" y="3132.02" width="180" height="36"/><rect class="cls-5" x="1098.09" y="3204.02" width="180" height="36"/><line class="cls-5" x1="774" y1="3069.02" x2="918" y2="3069.02"/><line class="cls-5" x1="774" y1="3123.02" x2="918" y2="3123.02"/><line class="cls-5" x1="774" y1="3177.02" x2="918" y2="3177.02"/><line class="cls-5" x1="774" y1="3231.02" x2="918" y2="3231.02"/><circle class="cls-9" cx="738" cy="3231.02" r="9"/><circle class="cls-9" cx="738" cy="3177.02" r="9"/><circle class="cls-9" cx="738" cy="3123.02" r="9"/><circle class="cls-9" cx="738" cy="3069.02" r="9"/><path class="cls-5" d="M5076,3447.02v144c0,9.95,8.05,18,18,18h108c9.95,0,18-8.05,18-18v-144"/><line class="cls-5" x1="5067" y1="3447.02" x2="5229" y2="3447.02"/><line class="cls-5" x1="5112" y1="3483.02" x2="5112" y2="3573.02"/><line class="cls-5" x1="5148" y1="3483.02" x2="5148" y2="3573.02"/><line class="cls-5" x1="5184" y1="3483.02" x2="5184" y2="3573.02"/><path class="cls-5" d="M5184,3447.02v-18c0-9.95-8.05-18-18-18h-36c-9.95,0-18,8.05-18,18v18"/><polyline class="cls-5" points="3035.5 3453.51 3071.5 3453.51 3071.5 3453.58 3071.5 3417.58"/><path class="cls-5" d="M3071.5,3453.51l-13.5-13.5c-17.92-17.92-42.67-29-70-29-54.68,0-99,44.32-99,99,0,22.02,7.19,42.35,19.34,58.79,18.03,24.39,47,40.21,79.66,40.21,54.68,0,99-44.32,99-99"/><circle class="cls-5" cx="765" cy="2790.02" r="36"/><circle class="cls-5" cx="891" cy="2727.02" r="36"/><circle class="cls-5" cx="891" cy="2853.02" r="36"/><line class="cls-5" x1="797.18" y1="2806.11" x2="858.83" y2="2836.93"/><line class="cls-5" x1="858.83" y1="2743.1" x2="797.2" y2="2773.92"/><polyline class="cls-5" points="1107 1035.02 1161 1035.02 1161 1089.02"/><polygon class="cls-5" points="1269 1089.02 1269 891.02 1107 891.02 1107 1035.02 1161 1089.02 1269 1089.02"/><line class="cls-5" x1="1233" y1="1053.02" x2="1197" y2="1053.02"/><line class="cls-5" x1="1197" y1="963.02" x2="1143" y2="963.02"/><path class="cls-9" d="M3714.36,3193.15c3.51,3.52,3.51,9.21,0,12.73-3.52,3.51-9.21,3.51-12.73,0-3.51-3.52-3.51-9.21,0-12.73,3.52-3.51,9.21-3.51,12.73,0Z"/><line class="cls-5" x1="3708" y1="3172.52" x2="3708" y2="3127.52"/><polygon class="cls-5" points="3708 3064.52 3757.5 3150.02 3807 3235.52 3708 3235.52 3609 3235.52 3658.5 3150.02 3708 3064.52"/><path class="cls-9" d="M2994.36,992.65c3.51,3.52,3.51,9.21,0,12.73-3.52,3.51-9.21,3.51-12.73,0-3.51-3.52-3.51-9.21,0-12.73,3.52-3.51,9.21-3.51,12.73,0Z"/><line class="cls-5" x1="2988" y1="972.02" x2="2988" y2="927.02"/><path class="cls-9" d="M2634.36,992.65c3.51,3.52,3.51,9.21,0,12.73-3.52,3.51-9.21,3.51-12.73,0-3.51-3.52-3.51-9.21,0-12.73,3.52-3.51,9.21-3.51,12.73,0Z"/><path class="cls-5" d="M2610,937.91c2.72-6.38,9.46-10.89,17.36-10.89,10.29,0,18.64,7.68,18.64,17.14,0,10.89-18.64,13.14-18.64,27.86"/><path class="cls-9" d="M3331.86,992.65c3.51,3.52,3.51,9.21,0,12.73-3.52,3.51-9.21,3.51-12.73,0-3.51-3.52-3.51-9.21,0-12.73,3.52-3.51,9.21-3.51,12.73,0Z"/><path class="cls-5" d="M3307.5,937.91c2.72-6.38,9.46-10.89,17.36-10.89,10.29,0,18.64,7.68,18.64,17.14,0,10.89-18.64,13.14-18.64,27.86"/><path class="cls-9" d="M3385.86,992.65c3.51,3.52,3.51,9.21,0,12.73-3.52,3.51-9.21,3.51-12.73,0-3.51-3.52-3.51-9.21,0-12.73,3.52-3.51,9.21-3.51,12.73,0Z"/><line class="cls-5" x1="3379.5" y1="972.02" x2="3379.5" y2="927.02"/><path class="cls-5" d="M4112,630.02c0,24.3-19.7,44-44,44s-44-19.7-44-44,19.7-44,44-44,34.65,5.22,44,13.2"/><path class="cls-5" d="M4068,729.02c-54.68,0-99-44.32-99-99s44.32-99,99-99,99,44.32,99,99v16.74c0,15.19-12.31,27.5-27.5,27.5s-27.5-12.31-27.5-27.5"/><line class="cls-5" x1="4112" y1="646.76" x2="4112" y2="599.22"/><circle class="cls-5" cx="4068" cy="3150.02" r="99"/><path class="cls-9" d="M4074.36,3193.15c3.51,3.52,3.51,9.21,0,12.73-3.52,3.51-9.21,3.51-12.73,0-3.51-3.52-3.51-9.21,0-12.73,3.52-3.51,9.21-3.51,12.73,0Z"/><line class="cls-5" x1="4068" y1="3172.52" x2="4068" y2="3091.52"/><circle class="cls-5" cx="4428" cy="3150.02" r="99"/><path class="cls-9" d="M4421.64,3115.88c-3.51-3.52-3.51-9.21,0-12.73,3.52-3.51,9.21-3.51,12.73,0,3.51,3.52,3.51,9.21,0,12.73-3.52,3.51-9.21,3.51-12.73,0Z"/><line class="cls-5" x1="4428" y1="3136.52" x2="4428" y2="3199.52"/><circle class="cls-5" cx="4788" cy="3150.02" r="99"/><path class="cls-9" d="M4794.36,3193.15c3.51,3.52,3.51,9.21,0,12.73-3.52,3.51-9.21,3.51-12.73,0-3.51-3.52-3.51-9.21,0-12.73,3.52-3.51,9.21-3.51,12.73,0Z"/><path class="cls-5" d="M4755.6,3111.13c4.89-11.48,17.04-19.61,31.25-19.61,18.53,0,33.55,13.82,33.55,30.86,0,19.61-33.55,23.66-33.55,50.14"/><path class="cls-5" d="M4842,603.02c0-29.85-24.15-54-54-54s-54,24.15-54,54c0,59.7-18,36-18,99h144c0-64.21-18-38.16-18-99Z"/><line class="cls-5" x1="4788" y1="531.02" x2="4788" y2="549.02"/><path class="cls-5" d="M4806,702.02v9c0,9.95-8.05,18-18,18s-18-8.05-18-18v-9h36Z"/><path class="cls-5" d="M4878,634.52c12-12.44,12-32.56,0-45"/><path class="cls-5" d="M4698,589.52c-12,12.44-12,32.56,0,45"/><line class="cls-5" x1="4428" y1="531.02" x2="4428" y2="549.02"/><path class="cls-5" d="M4446,702.02v9c0,9.95-8.05,18-18,18s-18-8.05-18-18v-9"/><polyline class="cls-5" points="3699 225.02 3699 171.02 3807 171.02 3807 315.02 3717 315.02"/><rect class="cls-5" x="3609" y="225.02" width="108" height="144"/><polyline class="cls-5" points="3649.5 270.02 3676.5 297.02 3649.5 324.02"/><polyline class="cls-5" points="3766.5 270.02 3739.5 243.02 3766.5 216.02"/><path class="cls-9" d="M3354.36,1384.15c3.51,3.51,3.51,9.21,0,12.73-3.52,3.51-9.21,3.51-12.73,0-3.51-3.51-3.51-9.21,0-12.73,3.52-3.51,9.21-3.51,12.73,0Z"/><path class="cls-5" d="M3330,1329.41c2.72-6.38,9.46-10.89,17.36-10.89,10.29,0,18.64,7.68,18.64,17.14,0,10.89-18.64,13.14-18.64,27.86"/><path class="cls-5" d="M2925,1323.02h-18c-9.95,0-18,8.05-18,18v36c0,9.95,8.05,18,18,18h18"/><path class="cls-5" d="M3051,1395.02h18c9.95,0,18-8.05,18-18v-36c0-9.95-8.05-18-18-18h-18"/><polygon class="cls-5" points="729 945.02 927 945.02 828 891.02 729 945.02"/><line class="cls-5" x1="828" y1="972.02" x2="828" y2="1026.02"/><line class="cls-5" x1="792" y1="972.02" x2="792" y2="1026.02"/><line class="cls-5" x1="900" y1="972.02" x2="900" y2="1026.02"/><line class="cls-5" x1="864" y1="972.02" x2="864" y2="1026.02"/><polygon class="cls-5" points="747 1053.02 909 1053.02 927 1089.02 729 1089.02 747 1053.02"/><line class="cls-5" x1="756" y1="972.02" x2="756" y2="1026.02"/><polygon class="cls-5" points="1260 2763.02 1206 2817.02 1206 2871.02 1170 2889.02 1170 2817.02 1116 2763.02 1116 2691.02 1260 2691.02 1260 2763.02"/><line class="cls-5" x1="1116" y1="2727.02" x2="1260" y2="2727.02"/><path class="cls-5" d="M1827,3501.02c-9.95,0-18,8.05-18,18v54c0,9.95,8.05,18,18,18h162c9.95,0,18-8.05,18-18v-54c0-9.95-8.05-18-18-18"/><polyline class="cls-5" points="1944 3519.02 1908 3555.02 1872 3519.02"/><line class="cls-5" x1="1908" y1="3555.02" x2="1908" y2="3429.02"/><path class="cls-5" d="M1629,3501.02c9.95,0,18,8.05,18,18v54c0,9.95-8.05,18-18,18h-162c-9.95,0-18-8.05-18-18v-54c0-9.95,8.05-18,18-18"/><polyline class="cls-5" points="1512 3465.02 1548 3429.02 1584 3465.02"/><line class="cls-5" x1="1548" y1="3429.02" x2="1548" y2="3555.02"/><path class="cls-5" d="M3681,945.02h-54c-9.95,0-18,8.05-18,18v72c0,9.95,8.05,18,18,18v36l36-36h54c9.95,0,18-8.05,18-18v-35.57"/><path class="cls-5" d="M3789,999.02c9.95,0,18-8.05,18-18v-72c0-9.95-8.05-18-18-18h-90c-9.95,0-18,8.05-18,18v72c0,9.95,8.05,18,18,18h54l36,36v-36Z"/><circle class="cls-5" cx="3348" cy="630.02" r="99"/><path class="cls-5" d="M3298.5,614.06c0-11.07,8.06-20.04,18-20.04s18,8.97,18,20.04c0,5.41-2.52,10.23-5.05,13.92l-30.95,38.04h36"/><line class="cls-5" x1="3352.5" y1="648.21" x2="3397.5" y2="648.21"/><line class="cls-5" x1="3352.5" y1="648.02" x2="3388.5" y2="594.02"/><line class="cls-5" x1="3388.5" y1="594.02" x2="3388.5" y2="666.02"/><path class="cls-5" d="M1508.29,707.91l-38.19-38.19c-28.14-28.14-28.14-73.68,0-101.82l38.19,38.18-12.73,12.73c-7.04,7.04-7.04,18.42,0,25.46l38.18,38.18c7.03,7.04,18.42,7.04,25.46,0l12.73-12.73,38.18,38.19c-28.14,28.14-73.68,28.14-101.82,0Z"/><path class="cls-5" d="M1548,569.06c0-11.07,8.06-20.04,18-20.04s18,8.97,18,20.04c0,5.41-2.52,10.23-5.05,13.92l-30.95,38.04h36"/><line class="cls-5" x1="1602" y1="603.21" x2="1647" y2="603.21"/><line class="cls-5" x1="1602" y1="603.02" x2="1638" y2="549.02"/><line class="cls-5" x1="1638" y1="549.02" x2="1638" y2="621.02"/><polyline class="cls-5" points="3627 2835.02 3681 2835.02 3681 2889.02"/><polygon class="cls-5" points="3789 2889.02 3789 2691.02 3627 2691.02 3627 2835.02 3681 2889.02 3789 2889.02"/><path class="cls-5" d="M2727,2358.02v144c0,9.95-8.05,18-18,18h-162c-9.95,0-18-8.05-18-18v-144h0v144"/><line class="cls-5" x1="2646" y1="2376.02" x2="2646" y2="2340.02"/><line class="cls-5" x1="2610" y1="2376.02" x2="2610" y2="2340.02"/><line class="cls-5" x1="2682" y1="2376.02" x2="2682" y2="2340.02"/><line class="cls-5" x1="2574" y1="2376.02" x2="2574" y2="2340.02"/><polyline class="cls-5" points="2614.5 2484.02 2650.5 2412.02 2605.5 2412.02"/><path class="cls-5" d="M1575,2007.02h54c9.95,0,18,8.05,18,18v108c0,9.95-8.05,18-18,18h-162c-9.95,0-18-8.05-18-18v-108c0-9.95,8.05-18,18-18h18l18-18h54l18,18Z"/><circle class="cls-5" cx="1530" cy="2079.02" r="45"/><path class="cls-9" d="M1617.36,2036.65c3.51,3.52,3.51,9.21,0,12.73-3.52,3.51-9.21,3.51-12.73,0-3.51-3.52-3.51-9.21,0-12.73,3.52-3.51,9.21-3.51,12.73,0Z"/><rect class="cls-5" x="1809" y="1989.02" width="198" height="162" rx="18" ry="18"/><polyline class="cls-5" points="2007 2088.02 1953 2034.02 1872 2115.02 1845 2088.02 1809 2124.02"/><circle class="cls-6" cx="1863" cy="2043.02" r="18"/><polygon class="cls-5" points="567 585.02 468 639.02 369 585.02 468 531.02 567 585.02"/><polyline class="cls-5" points="567 585.02 567 675.02 468 729.02 369 675.02 369 585.02"/><line class="cls-5" x1="468" y1="639.02" x2="468" y2="729.02"/><line class="cls-5" x1="418.5" y1="558.02" x2="517.5" y2="612.02"/><circle class="cls-5" cx="54" cy="684.02" r="18"/><circle class="cls-5" cx="171" cy="684.02" r="18"/><line class="cls-5" x1="72" y1="684.02" x2="153" y2="684.02"/><polyline class="cls-5" points="135 639.02 135 558.02 9 558.02 9 684.02 36 684.02"/><path class="cls-5" d="M135,576.02h18c29.85,0,54,24.15,54,54v54h-18"/><circle class="cls-5" cx="828" cy="1647.02" r="27"/><circle class="cls-5" cx="765" cy="1719.02" r="27"/><circle class="cls-5" cx="891" cy="1719.02" r="27"/><path class="cls-5" d="M864,1719.02c0-29.85-16.1-45-36-45s-36,15.15-36,45"/><path class="cls-5" d="M801,1800.02v-9c0-29.85-16.1-45-36-45s-36,15.15-36,45v9"/><path class="cls-5" d="M927,1800.02v-9c0-29.85-16.1-45-36-45s-36,15.15-36,45v9"/><polygon class="cls-5" points="2659.5 2070.02 2605.5 2102.42 2605.5 2037.62 2659.5 2070.02"/><path class="cls-5" d="M2628,1998.02q-99,0-99,72"/><path class="cls-5" d="M2727,2070.02q0-72-99-72"/><path class="cls-5" d="M2628,2142.02q99,0,99-72"/><path class="cls-5" d="M2529,2070.02q0,72,99,72"/><path class="cls-5" d="M3082.5,2070.01l-180,99v-198s180,99,180,99Z"/><path class="cls-5" d="M1647,945.02c0,79.59-40.49,116.21-99,144-58.51-27.79-99-64.41-99-144v-54h198v54Z"/><polyline class="cls-5" points="1593 954.02 1539 1008.02 1503 972.02"/><path class="cls-5" d="M876.07,3480.26l-73.27,73.27c-8.09,8.09-21.21,8.09-29.31,0s-8.09-21.21,0-29.31l91.59-91.59c14.16-14.16,37.13-14.16,51.29,0,14.18,14.17,14.18,37.11,0,51.29l-98.91,98.91c-20.25,20.25-53.02,20.25-73.27,0-20.25-20.25-20.25-53.02,0-73.27l73.27-73.27"/><polyline class="cls-5" points="3395.5 3453.51 3431.5 3453.51 3431.5 3453.58 3431.5 3417.58"/><path class="cls-5" d="M3431.5,3453.51l-13.5-13.5c-17.92-17.92-42.67-29-70-29-54.68,0-99,44.32-99,99"/><polyline class="cls-5" points="3300.5 3566.52 3264.5 3566.52 3264.5 3566.46 3264.5 3602.46"/><path class="cls-5" d="M3264.5,3566.52l13.5,13.5c17.92,17.92,42.67,29,70,29,54.68,0,99-44.32,99-99"/><polygon class="cls-5" points="2583 3231.02 2529 3249.02 2547 3195.02 2691 3051.02 2727 3087.02 2583 3231.02"/><line class="cls-5" x1="2664" y1="3078.02" x2="2700" y2="3114.02"/><path class="cls-5" d="M3357,3051.02h-90c-9.95,0-18,8.05-18,18v162c0,9.95,8.05,18,18,18h162c9.95,0,18-8.05,18-18v-90"/><polygon class="cls-5" points="3339 3195.02 3285 3213.02 3303 3159.02 3411 3051.02 3447 3087.02 3339 3195.02"/><line class="cls-5" x1="3384" y1="3078.02" x2="3420" y2="3114.02"/><circle class="cls-5" cx="1908" cy="1287.02" r="36"/><line class="cls-5" x1="1908" y1="1323.02" x2="1908" y2="1449.02"/><line class="cls-5" x1="1890" y1="1449.02" x2="1926" y2="1449.02"/><line class="cls-5" x1="2223" y1="1251.02" x2="2223" y2="1449.02"/><polyline class="cls-5" points="2223 1251.02 2313 1251.02 2295 1287.02 2313 1323.02 2223 1323.02"/><path class="cls-6" d="M3765.73,3452.29c7.03,7.03,7.03,18.43,0,25.46-7.03,7.03-18.43,7.03-25.46,0s-7.03-18.43,0-25.46c7.03-7.03,18.43-7.03,25.46,0Z"/><line class="cls-5" x1="3765.73" y1="3452.29" x2="3807" y2="3411.02"/><path class="cls-5" d="M3717,3429.02l-108,108,72,72,108-108c19.91-19.91,19.92-52.12,.02-72.02-19.9-19.9-52.11-19.89-72.02,.02Z"/><path class="cls-9" d="M4794.36,3503.65c3.51,3.52,3.51,9.21,0,12.73-3.52,3.51-9.21,3.51-12.73,0-3.51-3.52-3.51-9.21,0-12.73,3.52-3.51,9.21-3.51,12.73,0Z"/><path class="cls-9" d="M4794.36,3449.65c3.51,3.52,3.51,9.21,0,12.73-3.52,3.51-9.21,3.51-12.73,0-3.51-3.52-3.51-9.21,0-12.73,3.52-3.51,9.21-3.51,12.73,0Z"/><path class="cls-9" d="M4794.36,3557.65c3.51,3.52,3.51,9.21,0,12.73-3.52,3.51-9.21,3.51-12.73,0-3.51-3.52-3.51-9.21,0-12.73,3.52-3.51,9.21-3.51,12.73,0Z"/><path class="cls-9" d="M4434.36,3516.38c-3.52,3.51-9.21,3.51-12.73,0-3.51-3.52-3.51-9.21,0-12.73,3.52-3.51,9.21-3.51,12.73,0,3.51,3.52,3.51,9.21,0,12.73Z"/><path class="cls-9" d="M4488.36,3516.38c-3.52,3.51-9.21,3.51-12.73,0-3.51-3.52-3.51-9.21,0-12.73,3.52-3.51,9.21-3.51,12.73,0,3.51,3.52,3.51,9.21,0,12.73Z"/><path class="cls-9" d="M4380.36,3516.38c-3.52,3.51-9.21,3.51-12.73,0-3.51-3.52-3.51-9.21,0-12.73,3.52-3.51,9.21-3.51,12.73,0,3.51,3.52,3.51,9.21,0,12.73Z"/><circle class="cls-5" cx="108" cy="2430.02" r="27"/><path class="cls-5" d="M129.53,2361.29l-3.53-30.28h-36l-3.53,30.28c-10.25,3.2-19.5,8.64-27.21,15.73-.01-.01-27.99-12.09-27.99-12.09l-18,31.18,24.45,18.19c-1.12,5.06-1.72,10.32-1.72,15.72s.59,10.66,1.72,15.72l-24.46,18.19,18,31.18s27.98-12.08,28-12.09c7.71,7.09,16.97,12.53,27.21,15.73l3.53,30.28h36l3.53-30.27c10.25-3.21,19.5-8.64,27.22-15.72l27.98,12.08,18-31.18-24.46-18.19c1.13-5.06,1.72-10.32,1.72-15.72s-.59-10.66-1.72-15.72l24.45-18.19-18-31.18s-27.98,12.08-27.99,12.09c-7.74-7.12-17.04-12.57-27.33-15.77"/><path class="cls-5" d="M1845,1035.02c-19.9,0-36-16.1-36-36v-72c0-19.9,16.1-36,36-36h126c19.9,0,36,16.1,36,36v72c0,19.9-16.1,36-36,36h-72l-54,54v-54Z"/><path class="cls-5" d="M2925,1035.02c-19.9,0-36-16.1-36-36v-72c0-19.9,16.1-36,36-36h126c19.9,0,36,16.1,36,36v72c0,19.9-16.1,36-36,36h-72l-54,54v-54Z"/><rect class="cls-5" x="729" y="1980.02" width="198" height="144" rx="18" ry="18"/><polyline class="cls-5" points="801 2124.02 792 2160.02 864 2160.02 855 2124.02"/><polyline class="cls-5" points="405 2745.02 405 2691.02 531 2691.02 531 2745.02"/><path class="cls-5" d="M531,2853.02h18c9.95,0,18-8.05,18-18v-72c0-9.95-8.05-18-18-18h-162c-9.95,0-18,8.05-18,18v72c0,9.95,8.05,18,18,18h18"/><rect class="cls-5" x="405" y="2817.02" width="126" height="72"/><path class="cls-9" d="M537.36,2774.65c3.51,3.52,3.51,9.21,0,12.73-3.52,3.51-9.21,3.51-12.73,0-3.51-3.52-3.51-9.21,0-12.73,3.52-3.51,9.21-3.51,12.73,0Z"/><polyline class="cls-5" points="81 2880.02 81 2808.02 135 2808.02 135 2880.02"/><polygon class="cls-5" points="27 2790.02 27 2880.02 189 2880.02 189 2790.02 207 2790.02 108 2700.02 9 2790.02 27 2790.02"/><rect class="cls-5" x="2169" y="1998.02" width="198" height="144"/><line class="cls-5" x1="2205" y1="1998.02" x2="2205" y2="2142.02"/><line class="cls-5" x1="2331" y1="1998.02" x2="2331" y2="2142.02"/><line class="cls-5" x1="2169" y1="2034.02" x2="2205" y2="2034.02"/><line class="cls-5" x1="2169" y1="2070.02" x2="2205" y2="2070.02"/><line class="cls-5" x1="2169" y1="2106.02" x2="2205" y2="2106.02"/><line class="cls-5" x1="2331" y1="2034.02" x2="2367" y2="2034.02"/><line class="cls-5" x1="2331" y1="2070.02" x2="2367" y2="2070.02"/><line class="cls-5" x1="2331" y1="2106.02" x2="2367" y2="2106.02"/><polygon class="cls-5" points="2299.5 2070.02 2245.5 2102.42 2245.5 2037.62 2299.5 2070.02"/><circle class="cls-5" cx="3276" cy="2142.02" r="27"/><circle class="cls-5" cx="3420" cy="2124.02" r="27"/><polyline class="cls-5" points="3447 2124.02 3447 1971.02 3303 1989.02 3303 2142.02"/><line class="cls-5" x1="3303" y1="2025.02" x2="3447" y2="2007.02"/><line class="cls-5" x1="18" y1="3096.02" x2="198" y2="3096.02"/><line class="cls-5" x1="18" y1="3150.02" x2="198" y2="3150.02"/><line class="cls-5" x1="18" y1="3204.02" x2="198" y2="3204.02"/><path class="cls-5" d="M5067,657.01v54c0,9.95,8.05,18,18,18h18v-72"/><path class="cls-5" d="M5220,603.02h9c9.95,0,18,8.05,18,18s-8.05,18-18,18h-9"/><path class="cls-5" d="M5100.85,657.01c36,0,78.75,29.82,117,54h2.15v-180c-38.25,24.19-81,54-117,54h-36c-9.95,0-18,8.05-18,18v36c0,9.95,8.05,18,18,18h36"/><polyline class="cls-5" points="4122 279.02 4149 306.02 4122 333.02"/><polyline class="cls-5" points="4014 261.02 3987 234.02 4014 207.02"/><line class="cls-5" x1="4149" y1="306.02" x2="3969" y2="306.02"/><line class="cls-5" x1="3987" y1="234.02" x2="4167" y2="234.02"/><line class="cls-5" x1="3676.5" y1="297.02" x2="3609" y2="297.02"/><line class="cls-5" x1="3739.5" y1="243.02" x2="3807" y2="243.02"/><path class="cls-5" d="M2205,1035.02c-19.9,0-36-16.1-36-36v-72c0-19.9,16.1-36,36-36h126c19.9,0,36,16.1,36,36v72c0,19.9-16.1,36-36,36h-72l-54,54v-54Z"/><path class="cls-5" d="M2310.81,948.42c0-11.82-9.58-21.41-21.41-21.41-9.08,0-18.29,5.65-21.41,13.62-3.11-7.97-12.33-13.62-21.41-13.62-11.82,0-21.41,9.58-21.41,21.41,0,18.97,23.11,38.19,42.81,50.59,19.7-12.41,42.81-31.62,42.81-50.59Z"/><path class="cls-5" d="M2565,1035.02c-19.9,0-36-16.1-36-36v-72c0-19.9,16.1-36,36-36h126c19.9,0,36,16.1,36,36v72c0,19.9-16.1,36-36,36h-72l-54,54v-54Z"/><path class="cls-5" d="M3285,1035.02c-19.9,0-36-16.1-36-36v-72c0-19.9,16.1-36,36-36h126c19.9,0,36,16.1,36,36v72c0,19.9-16.1,36-36,36h-72l-54,54v-54Z"/><path class="cls-5" d="M3789,2160.02c9.95,0,18-8.05,18-18v-162h-162v162c0,9.95-8.05,18-18,18h162Z"/><path class="cls-5" d="M3645,2052.02h-36v90c0,9.95,8.05,18,18,18"/><line class="cls-5" x1="3753" y1="2016.02" x2="3771" y2="2016.02"/><line class="cls-5" x1="3771" y1="2088.02" x2="3735" y2="2088.02"/><line class="cls-5" x1="3699" y1="2088.02" x2="3681" y2="2088.02"/><line class="cls-5" x1="3771" y1="2124.02" x2="3681" y2="2124.02"/><path class="cls-5" d="M482.49,2378.17l43.59-43.59c-21.72-7.73-46.91-2.9-64.3,14.48-17.39,17.39-22.22,42.58-14.49,64.29l-70.55,70.55c-10.32,10.32-10.32,27.03,0,37.36s27.03,10.32,37.36,0l70.55-70.55c21.72,7.73,46.91,2.9,64.3-14.48,17.39-17.38,22.22-42.57,14.49-64.29,0,0-43.59,43.58-43.59,43.58l-31.13-6.23-6.23-31.13Z"/><polygon class="cls-5" points="90 3609.02 90 3519.02 36 3519.02 126 3411.02 126 3501.02 180 3501.02 90 3609.02"/><polygon class="cls-5" points="423 3609.02 423 3519.02 369 3519.02 459 3411.02 459 3501.02 513 3501.02 423 3609.02"/><polyline class="cls-5" points="459 3475.82 513 3411.02 513 3501.02 567 3501.02 477 3609.02 477 3544.22"/><path class="cls-5" d="M1965.73,1652.29c7.03,7.03,7.03,18.43,0,25.46-7.03,7.03-18.43,7.03-25.46,0-7.03-7.03-7.03-18.43,0-25.46,7.03-7.03,18.43-7.03,25.46,0Z"/><path class="cls-5" d="M1881.62,1682.93c-.41-2.91-.62-5.89-.62-8.91,0-34.79,28.21-63,63-63s63,28.21,63,63-28.21,63-63,63c-2.86,0-5.67-.19-8.43-.56,0,0-18.57,18.56-18.57,18.56h-18v18h-18v18h-18v18h-54v-54l72-72"/><line class="cls-5" x1="1845" y1="1755.02" x2="1899" y2="1701.02"/><line class="cls-5" x1="3672" y1="1764.02" x2="3744" y2="1764.02"/><path class="cls-5" d="M3744,1764.02c0-27,36-41.24,36-81s-32.24-72-72-72-72,32.24-72,72,36,54,36,81v18c0,14.92,12.08,27,27,27h18c14.92,0,27-12.08,27-27v-18Z"/><path class="cls-5" d="M3672,1683.02c0-19.9,16.1-36,36-36"/><rect class="cls-5" x="1962" y="3060.02" width="36" height="180"/><rect class="cls-5" x="1890" y="3114.02" width="36" height="126"/><rect class="cls-5" x="1818" y="3168.02" width="36" height="72"/><path class="cls-5" d="M1224.09,3501.02c19.9,0,36,16.1,36,36h-144c0-19.9,16.1-36,36-36h72Z"/><polyline class="cls-5" points="1152.09 3501.02 1152.09 3411.02 1224.09 3411.02 1224.09 3501.02"/><line class="cls-5" x1="1188.09" y1="3537.02" x2="1188.09" y2="3609.02"/><circle class="cls-5" cx="2268" cy="3150.02" r="99"/><line class="cls-5" x1="2268" y1="3051.02" x2="2268" y2="3150.02"/><line class="cls-5" x1="2367" y1="3150.02" x2="2268" y2="3150.02"/><line class="cls-5" x1="2268" y1="3150.02" x2="2198.95" y2="3080.97"/><path class="cls-5" d="M747,1332.02c0-44.74,36.26-81,81-81s81,36.26,81,81c0,51.75-45,83.15-81,117-36-33.85-81-65.25-81-117Z"/><path class="cls-5" d="M1467,1332.02c0-44.74,36.26-81,81-81s81,36.26,81,81c0,51.75-45,83.15-81,117-36-33.85-81-65.25-81-117Z"/><path class="cls-5" d="M1107,1332.02c0-44.74,36.26-81,81-81s81,36.26,81,81c0,51.75-45,83.15-81,117-36-33.85-81-65.25-81-117Z"/><line class="cls-5" x1="1521" y1="1359.02" x2="1575" y2="1305.02"/><line class="cls-5" x1="1521" y1="1305.02" x2="1575" y2="1359.02"/><line class="cls-5" x1="1152" y1="1332.02" x2="1224" y2="1332.02"/><line class="cls-5" x1="1188" y1="1296.02" x2="1188" y2="1368.02"/><polyline class="cls-5" points="2655 3564.02 2628 3591.02 2601 3564.02"/><line class="cls-5" x1="2628" y1="3591.02" x2="2628" y2="3483.02"/><polyline class="cls-5" points="2241 3510.02 2268 3483.02 2295 3510.02"/><line class="cls-5" x1="2268" y1="3483.02" x2="2268" y2="3591.02"/><path class="cls-5" d="M2664,3537.02h27c19.88,0,36-16.12,36-36s-16.12-36-36-36c-4.1,0-7.98,.83-11.66,2.1-6.82-22.01-27.1-38.1-51.34-38.1-29.82,0-54,24.18-54,54,0,2.62,.41,5.12,.77,7.64-4.86-4.71-11.46-7.64-18.77-7.64-14.91,0-27,12.09-27,27s12.09,27,27,27h36"/><path class="cls-5" d="M2304,3537.02h27c19.88,0,36-16.12,36-36s-16.12-36-36-36c-4.1,0-7.98,.83-11.66,2.1-6.82-22.01-27.1-38.1-51.34-38.1-29.82,0-54,24.18-54,54,0,2.62,.41,5.12,.77,7.64-4.86-4.71-11.46-7.64-18.77-7.64-14.91,0-27,12.09-27,27s12.09,27,27,27h36"/><polyline class="cls-5" points="4347 2835.02 4401 2835.02 4401 2889.02"/><polygon class="cls-5" points="4509 2889.02 4509 2691.02 4347 2691.02 4347 2835.02 4401 2889.02 4509 2889.02"/><polyline class="cls-5" points="4707 2835.02 4761 2835.02 4761 2889.02"/><polygon class="cls-5" points="4869 2889.02 4869 2691.02 4707 2691.02 4707 2835.02 4761 2889.02 4869 2889.02"/><polyline class="cls-5" points="5067 2835.02 5121 2835.02 5121 2889.02"/><polygon class="cls-5" points="5229 2889.02 5229 2691.02 5067 2691.02 5067 2835.02 5121 2889.02 5229 2889.02"/><line class="cls-5" x1="4752" y1="2772.02" x2="4824" y2="2772.02"/><line class="cls-5" x1="4788" y1="2736.02" x2="4788" y2="2808.02"/><line class="cls-5" x1="5121" y1="2799.02" x2="5175" y2="2745.02"/><line class="cls-5" x1="5121" y1="2745.02" x2="5175" y2="2799.02"/><line class="cls-5" x1="2907" y1="3249.02" x2="3069" y2="3249.02"/><polygon class="cls-5" points="2961 3195.02 2907 3213.02 2925 3159.02 3033 3051.02 3069 3087.02 2961 3195.02"/><line class="cls-5" x1="3006" y1="3078.02" x2="3042" y2="3114.02"/><polyline class="cls-5" points="3987 2835.02 4041 2835.02 4041 2889.02"/><polygon class="cls-5" points="4149 2889.02 4149 2691.02 3987 2691.02 3987 2835.02 4041 2889.02 4149 2889.02"/><line class="cls-5" x1="4023" y1="2763.02" x2="4059" y2="2763.02"/><line class="cls-5" x1="4095" y1="2763.02" x2="4113" y2="2763.02"/><line class="cls-5" x1="4023" y1="2799.02" x2="4113" y2="2799.02"/><line class="cls-5" x1="4023" y1="2727.02" x2="4113" y2="2727.02"/><path class="cls-5" d="M549,945.02h-162c-9.95,0-18-8.05-18-18v126c0,9.95,8.05,18,18,18h162c9.95,0,18-8.05,18-18v-90c0-9.95-8.05-18-18-18Z"/><path class="cls-9" d="M537.36,1001.65c3.51,3.52,3.51,9.21,0,12.73-3.52,3.51-9.21,3.51-12.73,0-3.51-3.52-3.51-9.21,0-12.73,3.52-3.51,9.21-3.51,12.73,0Z"/><rect class="cls-5" x="3681" y="2016.02" width="36" height="36"/><line class="cls-5" x1="3753" y1="2052.02" x2="3771" y2="2052.02"/><path class="cls-5" d="M801.86,703.08l-46.93-46.93c-34.58-34.58-34.58-90.55,0-125.14l46.93,46.93-15.64,15.64c-8.65,8.65-8.65,22.64,0,31.28l46.93,46.93c8.65,8.65,22.64,8.65,31.28,0l15.64-15.64,46.93,46.93c-34.58,34.58-90.55,34.58-125.14,0Z"/><path class="cls-5" d="M567,963.02v-36c0-9.95-8.05-18-18-18h-162c-9.95,0-18,8.05-18,18"/><rect class="cls-9" x="9" y="945.02" width="198" height="36"/><path class="cls-5" d="M4482,603.02c0-29.85-24.15-54-54-54s-54,24.15-54,54c0,59.7-18,36-18,99h144c0-64.21-18-38.16-18-99Z"/><path class="cls-5" d="M3051,1395.02v-72c0-29.85-24.15-54-54-54h-18c-29.85,0-54,24.15-54,54v72c0,19.9,16.1,36,36,36h27"/><path class="cls-5" d="M3285,1323.02h-18c-9.95,0-18,8.05-18,18v36c0,9.95,8.05,18,18,18h18"/><path class="cls-5" d="M3411,1395.02h18c9.95,0,18-8.05,18-18v-36c0-9.95-8.05-18-18-18h-18"/><path class="cls-5" d="M3411,1395.02v-72c0-29.85-24.15-54-54-54h-18c-29.85,0-54,24.15-54,54v72c0,19.9,16.1,36,36,36h27"/><path class="cls-9" d="M1239.36,956.65c3.51,3.52,3.51,9.21,0,12.73-3.52,3.51-9.21,3.51-12.73,0-3.51-3.52-3.51-9.21,0-12.73,3.52-3.51,9.21-3.51,12.73,0Z"/><line class="cls-5" x1="1197" y1="999.02" x2="1143" y2="999.02"/><path class="cls-9" d="M1239.36,992.65c3.51,3.52,3.51,9.21,0,12.73-3.52,3.51-9.21,3.51-12.73,0-3.51-3.52-3.51-9.21,0-12.73,3.52-3.51,9.21-3.51,12.73,0Z"/><line class="cls-5" x1="1197" y1="927.02" x2="1143" y2="927.02"/><path class="cls-9" d="M1239.36,920.65c3.51,3.52,3.51,9.21,0,12.73-3.52,3.51-9.21,3.51-12.73,0-3.51-3.52-3.51-9.21,0-12.73,3.52-3.51,9.21-3.51,12.73,0Z"/><circle class="cls-5" cx="1125" cy="2493.02" r="18"/><line class="cls-5" x1="1125" y1="2511.02" x2="1125" y2="2529.02"/><line class="cls-5" x1="1125" y1="2475.02" x2="1125" y2="2331.02"/><circle class="cls-5" cx="1251" cy="2448.02" r="18"/><line class="cls-5" x1="1251" y1="2466.02" x2="1251" y2="2529.02"/><line class="cls-5" x1="1251" y1="2430.02" x2="1251" y2="2331.02"/><circle class="cls-5" cx="1188" cy="2367.02" r="18"/><line class="cls-5" x1="1188" y1="2349.02" x2="1188" y2="2331.02"/><line class="cls-5" x1="1188" y1="2385.02" x2="1188" y2="2529.02"/><path class="cls-5" d="M3609,2502.02c0,9.95,8.05,18,18,18h162c9.95,0,18-8.05,18-18v-144h-198v144Z"/><line class="cls-5" x1="3726" y1="2376.02" x2="3726" y2="2340.02"/><line class="cls-5" x1="3690" y1="2376.02" x2="3690" y2="2340.02"/><line class="cls-5" x1="3762" y1="2376.02" x2="3762" y2="2340.02"/><line class="cls-5" x1="3654" y1="2376.02" x2="3654" y2="2340.02"/><line class="cls-5" x1="3681" y1="2475.02" x2="3735" y2="2421.02"/><line class="cls-5" x1="3681" y1="2421.02" x2="3735" y2="2475.02"/><rect class="cls-5" x="1107" y="225.02" width="162" height="144"/><path class="cls-5" d="M1143,243.02v-36c0-19.9,16.1-36,36-36h18c19.9,0,36,16.1,36,36v36"/><polyline class="cls-5" points="1224 275.42 1180.8 318.62 1152 289.82"/><polygon class="cls-5" points="2358 369.02 2349 225.02 2187 225.02 2178 369.02 2358 369.02"/><path class="cls-5" d="M2223,243.02v-36c0-19.9,16.1-36,36-36h18c19.9,0,36,16.1,36,36v36"/><polyline class="cls-5" points="2304 275.42 2260.8 318.62 2232 289.82"/><rect class="cls-8" x="5417.96" width="720" height="3780"/><g><path class="cls-1" d="M5834.72,171.02v199.55c0,22.78-4.89,42.72-14.66,59.8-9.77,17.09-23.91,30.23-42.4,39.45-18.49,9.21-40.6,13.82-66.34,13.82-38.25,0-67.99-10.12-89.23-30.38-21.23-20.25-31.85-48.09-31.85-83.53V171.02h50.62v195.12c0,25.45,5.91,44.23,17.72,56.32,11.81,12.09,29.95,18.14,54.42,18.14,47.53,0,71.3-24.96,71.3-74.88V171.02h50.41Z"/><path class="cls-1" d="M5913.62,479.41V171.02h50.41V479.41h-50.41Z"/><path class="cls-1" d="M5597.67,630.61v-89.95h14.7v89.95h-14.7Z"/><path class="cls-1" d="M5674.38,551.98c-8.44,0-15.08,3-19.93,8.98-4.83,5.98-7.24,14.26-7.24,24.79s2.32,19.38,6.98,25.04c4.66,5.66,11.39,8.49,20.2,8.49,3.83,0,7.52-.38,11.07-1.14,3.59-.76,7.3-1.73,11.14-2.92v12.61c-7.05,2.66-15.05,4-23.99,4-13.17,0-23.27-3.99-30.32-11.97-7.07-7.97-10.58-19.39-10.58-34.23,0-9.35,1.7-17.53,5.13-24.55,3.43-7.01,8.37-12.38,14.85-16.12,6.49-3.73,14.08-5.6,22.84-5.6s17.66,1.92,25.45,5.78l-5.27,12.24c-3.04-1.43-6.26-2.7-9.63-3.78-3.39-1.09-6.94-1.63-10.69-1.63Z"/><path class="cls-1" d="M5795.81,585.51c0,14.64-3.66,26.02-10.97,34.15-7.33,8.12-17.68,12.18-31.11,12.18s-23.99-4.03-31.27-12.09c-7.28-8.05-10.92-19.51-10.92-34.36s3.66-26.25,10.97-34.21c7.33-7.95,17.77-11.94,31.36-11.94s23.7,4.04,31.01,12.12c7.3,8.08,10.93,19.46,10.93,34.14Zm-68.66,0c0,11.08,2.25,19.47,6.71,25.2,4.47,5.71,11.09,8.58,19.86,8.58s15.34-2.83,19.79-8.49c4.45-5.66,6.68-14.09,6.68-25.29s-2.22-19.4-6.63-25.1c-4.41-5.7-10.99-8.55-19.7-8.55s-15.49,2.85-19.97,8.55c-4.5,5.7-6.75,14.07-6.75,25.1Z"/><path class="cls-1" d="M5890.06,630.61h-18.02l-44.24-71.67h-.49l.32,4c.58,7.63,.86,14.6,.86,20.92v46.76h-13.34v-89.95h17.82l44.12,71.31h.37c-.09-.94-.25-4.38-.49-10.31-.25-5.92-.37-10.55-.37-13.87v-47.13h13.47v89.95Z"/><path class="cls-1" d="M5965.68,606.18c0,8-2.88,14.27-8.68,18.83-5.77,4.55-13.74,6.83-23.92,6.83s-18.49-1.58-24.98-4.74v-13.9c4.1,1.93,8.46,3.45,13.08,4.55,4.61,1.11,8.91,1.66,12.88,1.66,5.82,0,10.12-1.11,12.88-3.32,2.78-2.22,4.15-5.19,4.15-8.92,0-3.37-1.27-6.21-3.8-8.55-2.55-2.34-7.8-5.11-15.75-8.31-8.21-3.32-13.99-7.12-17.37-11.38-3.36-4.26-5.03-9.4-5.03-15.38,0-7.51,2.66-13.41,7.98-17.72,5.34-4.31,12.5-6.46,21.48-6.46s17.19,1.89,25.72,5.66l-4.68,12c-8-3.37-15.13-5.04-21.41-5.04-4.76,0-8.37,1.04-10.83,3.11-2.46,2.06-3.69,4.81-3.69,8.21,0,2.34,.49,4.34,1.48,5.99,.98,1.67,2.6,3.23,4.87,4.71,2.25,1.48,6.31,3.43,12.16,5.84,6.61,2.75,11.46,5.31,14.52,7.69,3.09,2.38,5.34,5.06,6.78,8.06,1.42,3,2.15,6.52,2.15,10.58Z"/></g><g><path class="cls-1" d="M5589.98,3222.38h-42.98v-77.1h42.98v7.96h-34.01v24.84h31.96v7.91h-31.96v28.37h34.01v8.02Z"/><path class="cls-1" d="M5668.61,3183.09c0,12.73-3.45,22.45-10.37,29.18-6.89,6.73-16.84,10.11-29.81,10.11h-21.36v-77.1h23.62c11.99,0,21.31,3.32,27.95,9.97,6.65,6.65,9.97,15.93,9.97,27.84Zm-9.49,.32c0-10.05-2.53-17.63-7.56-22.73-5.06-5.1-12.55-7.65-22.5-7.65h-13.02v61.59h10.92c10.69,0,18.72-2.64,24.1-7.89,5.38-5.26,8.07-13.03,8.07-23.33Z"/><path class="cls-1" d="M5685.8,3222.38v-77.1h8.97v77.1h-8.97Z"/><path class="cls-1" d="M5739.64,3222.38h-8.96v-69.13h-24.42v-7.96h57.8v7.96h-24.42v69.13Z"/><path class="cls-1" d="M5824.12,3222.38l-9.6-24.52h-30.9l-9.49,24.52h-9.07l30.48-77.41h7.54l30.32,77.41h-9.28Zm-12.39-32.59l-8.96-23.89c-1.16-3.02-2.36-6.73-3.59-11.13-.77,3.38-1.88,7.08-3.32,11.13l-9.07,23.89h24.94Z"/><path class="cls-1" d="M5844.01,3145.28h21.78c10.23,0,17.63,1.53,22.2,4.59,4.57,3.06,6.85,7.89,6.85,14.5,0,4.57-1.28,8.33-3.81,11.3-2.57,2.97-6.27,4.91-11.16,5.78v.53c11.71,2,17.56,8.16,17.56,18.46,0,6.89-2.34,12.27-7,16.14-4.66,3.87-11.16,5.8-19.53,5.8h-26.89v-77.1Zm8.96,33.01h14.77c6.33,0,10.88-1,13.66-2.99,2.78-1.99,4.17-5.33,4.17-10.04,0-4.33-1.55-7.45-4.64-9.37-3.09-1.92-8.02-2.87-14.77-2.87h-13.18v25.26Zm0,7.59v28.85h16.08c6.22,0,10.9-1.21,14.06-3.62,3.13-2.41,4.71-6.17,4.71-11.3,0-4.78-1.62-8.3-4.82-10.55-3.23-2.25-8.12-3.38-14.7-3.38h-15.35Z"/><path class="cls-1" d="M5913.98,3222.38v-77.1h8.96v68.98h34.01v8.12h-42.98Z"/><path class="cls-1" d="M6013.02,3222.38h-42.98v-77.1h42.98v7.96h-34.01v24.84h31.96v7.91h-31.96v28.37h34.01v8.02Z"/><path class="cls-1" d="M5633.95,3331.47c0,6.78-2.46,12.08-7.38,15.87-4.92,3.8-11.6,5.7-20.04,5.7-9.14,0-16.17-1.18-21.09-3.53v-8.65c3.16,1.34,6.61,2.39,10.34,3.16,3.73,.77,7.42,1.16,11.07,1.16,5.98,0,10.48-1.14,13.5-3.41,3.02-2.27,4.54-5.41,4.54-9.46,0-2.67-.55-4.87-1.62-6.57-1.07-1.7-2.87-3.27-5.38-4.71-2.51-1.44-6.33-3.08-11.46-4.91-7.17-2.57-12.3-5.61-15.36-9.12-3.09-3.52-4.62-8.1-4.62-13.76,0-5.94,2.23-10.67,6.7-14.18,4.46-3.52,10.37-5.27,17.72-5.27s14.71,1.41,21.15,4.22l-2.8,7.8c-6.36-2.67-12.55-4.01-18.56-4.01-4.74,0-8.45,1.02-11.13,3.06-2.67,2.04-4.01,4.87-4.01,8.49,0,2.67,.49,4.85,1.48,6.56,.98,1.7,2.64,3.27,4.97,4.69s5.92,3.01,10.74,4.73c8.09,2.88,13.64,5.98,16.68,9.28,3.04,3.3,4.57,7.59,4.57,12.87Z"/><path class="cls-1" d="M5673.44,3351.98h-8.96v-69.13h-24.42v-7.96h57.8v7.96h-24.42v69.13Z"/><path class="cls-1" d="M5718.43,3319.92v32.06h-8.96v-77.1h21.15c9.46,0,16.44,1.81,20.95,5.43,4.52,3.62,6.78,9.07,6.78,16.35,0,10.2-5.17,17.09-15.5,20.67l20.94,34.65h-10.6l-18.67-32.06h-16.09Zm0-7.7h12.29c6.33,0,10.97-1.27,13.92-3.78,2.95-2.51,4.43-6.28,4.43-11.3s-1.51-8.77-4.5-11.02c-3.02-2.25-7.84-3.38-14.48-3.38h-11.66v29.48Z"/><path class="cls-1" d="M5843.14,3313.33c0,12.34-3.13,22.04-9.35,29.11-6.26,7.07-14.92,10.6-26.03,10.6s-20.13-3.48-26.28-10.42c-6.19-6.94-9.26-16.73-9.26-29.39s3.09-22.29,9.28-29.2c6.19-6.91,14.98-10.35,26.37-10.35s19.72,3.52,25.95,10.55c6.22,7.03,9.33,16.73,9.33,29.11Zm-61.43,0c0,10.44,2.21,18.35,6.66,23.75,4.45,5.4,10.92,8.1,19.39,8.1s14.99-2.69,19.35-8.07c4.36-5.38,6.54-13.31,6.54-23.78s-2.18-18.25-6.5-23.61c-4.36-5.36-10.78-8.03-19.28-8.03s-15.05,2.69-19.49,8.09c-4.45,5.4-6.66,13.25-6.66,23.55Z"/><path class="cls-1" d="M5916.02,3351.98h-10.55l-28.11-37.39-8.07,7.17v30.22h-8.97v-77.1h8.97v38.23l34.96-38.23h10.6l-31.01,33.49,32.17,43.61Z"/><path class="cls-1" d="M5969.6,3351.98h-42.98v-77.1h42.98v7.96h-34.01v24.84h31.96v7.91h-31.96v28.37h34.01v8.02Z"/></g><rect class="cls-4" x="5759.96" y="3573.02" width="36" height="36"/><rect class="cls-4" x="5651.96" y="3465.02" width="36" height="36"/><rect class="cls-4" x="5867.96" y="3465.02" width="36" height="36"/><path class="cls-3" d="M5759.96,3589.52c-45.23-7.59-80.92-43.28-88.51-88.51"/><path class="cls-3" d="M5884.51,3500.78c-7.5,45.34-43.24,81.15-88.55,88.75"/><polyline class="cls-5" points="863.96 1310.4 820.76 1353.6 791.96 1324.8"/><polyline class="cls-5" points="4463.96 2750.4 4420.76 2793.6 4391.96 2764.8"/></svg>