<svg width="100" height="100" viewBox="0 0 100 100" fill="none" xmlns="http://www.w3.org/2000/svg">
<path d="M99.5713 24.2778C99.1432 23.5854 98.4547 23.1747 97.7215 23.1747H23.2302L38.048 67.2061H86.542C87.5209 67.2061 88.3903 66.4789 88.7019 65.3995L99.881 26.6687C100.114 25.86 99.9989 24.9702 99.5709 24.2778H99.5713Z" fill="white"/>
<path d="M82.7755 82.8885H36.3573C34.9971 82.8885 33.776 81.9193 33.2801 80.4461L9.37153 9.40081L2.56913 7.59219C0.790123 7.11925 -0.322549 5.05799 0.0840112 2.98853C0.490571 0.919081 2.26254 -0.375249 4.04155 0.0976873L12.5476 2.35918C13.6135 2.64253 14.4896 3.52084 14.8884 4.70503L38.6122 75.2003H82.7755C84.6006 75.2003 86.0801 76.9213 86.0801 79.0444C86.0801 81.1675 84.6006 82.8885 82.7755 82.8885Z" fill="white"/>
<path d="M45.1918 99.9999C48.7989 99.9999 51.7231 96.5983 51.7231 92.4022C51.7231 88.2062 48.7989 84.8046 45.1918 84.8046C41.5846 84.8046 38.6604 88.2062 38.6604 92.4022C38.6604 96.5983 41.5846 99.9999 45.1918 99.9999Z" fill="white"/>
<path d="M74.5729 99.9999C78.18 99.9999 81.1042 96.5983 81.1042 92.4022C81.1042 88.2062 78.18 84.8046 74.5729 84.8046C70.9657 84.8046 68.0415 88.2062 68.0415 92.4022C68.0415 96.5983 70.9657 99.9999 74.5729 99.9999Z" fill="white"/>
</svg>
