<svg width="100" height="100" viewBox="0 0 100 100" fill="none" xmlns="http://www.w3.org/2000/svg">
<g clip-path="url(#clip0_15_165)">
<path d="M13.4328 61.564H0V100H13.4328V61.564Z" fill="white"/>
<path d="M34.3283 53.6117H20.8955V100H34.3283V53.6117Z" fill="white"/>
<path d="M55.2238 45.6594H41.791V100H55.2238V45.6594Z" fill="white"/>
<path d="M77.6119 39.0325H62.6865V100H77.6119V39.0325Z" fill="white"/>
<path d="M100 28.4294H85.0747V100H100V28.4294Z" fill="white"/>
<path d="M82.1194 13.5056L84.4776 0L69.6418 6.50762L54.6567 11.9814L62.8209 17.2432C58.4925 23.9496 40.0597 42.7833 6.10449 48.5222C6.10449 48.5222 49.5522 49.1584 72.5522 23.2737L79.9254 28.0318L82.1343 13.5056H82.1194Z" fill="white"/>
</g>
<defs>
<clipPath id="clip0_15_165">
<rect width="100" height="100" fill="white"/>
</clipPath>
</defs>
</svg>
