<svg width="100" height="100" viewBox="0 0 100 100" fill="none" xmlns="http://www.w3.org/2000/svg">
<path d="M77.1843 44.1907C77.6279 44.015 78.0979 43.905 78.5829 43.8364C79.0343 41.0336 79.3457 38.1878 79.3457 35.2714C79.3457 32.9936 79.165 30.7607 78.8879 28.5528C75.7015 28.2614 73.2079 25.6186 73.2079 22.3578C73.2079 21.8207 73.2957 21.3114 73.4236 20.8121C66.2072 18.0964 58.3365 16.5714 50.0807 16.5714C46.0079 16.5714 42.0315 16.9621 38.1743 17.655C54.5315 21.5871 68.4036 31.2307 77.1843 44.19V44.1907Z" fill="white"/>
<path d="M78.4179 56.1465C73.9294 67.5172 65.9086 77.2893 55.5701 84.3329C55.9929 85.1779 56.2536 86.1151 56.2536 87.1251C56.2536 87.5715 56.2008 88.0101 56.1122 88.4315C60.8301 91.2636 65.9601 93.555 71.4351 95.1215C75.6386 93.1236 79.5172 90.5708 82.9715 87.5201C83.7215 83.9508 84.1436 80.2672 84.1436 76.4951C84.1436 69.3415 82.6658 62.5143 80.0836 56.1886C79.8779 56.2065 79.6736 56.2493 79.4565 56.2493C79.1015 56.2501 78.7572 56.2015 78.4179 56.1465Z" fill="white"/>
<path d="M44.675 83.8807C32.2314 72.8028 24.4343 57.2449 24.4343 39.9964C24.4343 33.6985 25.4721 27.6214 27.3929 21.9028C27.0507 21.6035 26.7414 21.2728 26.47 20.9064C16.5879 24.6721 7.99429 30.7221 1.42214 38.3471C0.524286 42.0899 0 45.9807 0 49.9999C0 68.0478 9.59286 83.8121 23.9257 92.6007C30.9664 91.8807 37.6314 90.0328 43.7714 87.3164C43.7686 87.2492 43.75 87.1885 43.75 87.1214C43.75 85.9314 44.1 84.8271 44.675 83.8807Z" fill="white"/>
<path d="M23.2623 18.8571C22.7887 18.8436 22.3287 18.7886 21.8501 18.7886C17.8623 18.7886 13.9723 19.1721 10.1915 19.8386C7.47583 23.4164 5.22511 27.3536 3.54297 31.5943C9.17511 26.2857 15.8601 21.9629 23.2615 18.8579L23.2623 18.8571Z" fill="white"/>
<path d="M79.4565 16.1086C82.9101 16.1086 85.7065 18.9058 85.7065 22.3586C85.7065 22.6715 85.6586 22.9722 85.6144 23.2715C89.4894 25.6151 93.1065 28.2936 96.3594 31.3251C92.1258 20.8258 84.4422 12.1093 74.6951 6.56006C76.4558 9.60434 77.9179 12.8158 79.1072 16.1451C79.2244 16.1415 79.3415 16.1093 79.4565 16.1093V16.1086Z" fill="white"/>
<path d="M84.3885 26.1628C83.7542 26.9836 82.9313 27.6536 81.9692 28.0778C82.2749 30.4414 82.4706 32.8343 82.4706 35.2757C82.4706 38.3093 82.1556 41.2664 81.6892 44.1821C84.0328 45.0807 85.7078 47.3407 85.7078 50.0028C85.7078 52.1307 84.6421 53.9986 83.0256 55.1278C85.7235 61.785 87.2699 68.97 87.2699 76.4971C87.2699 78.9807 87.0599 81.4221 86.7449 83.8343C94.9485 74.9214 99.9992 63.0686 99.9992 50.0007C99.9992 45.8764 99.4435 41.8886 98.5035 38.0528C94.4814 33.4536 89.7264 29.4378 84.3878 26.1628H84.3885Z" fill="white"/>
<path d="M49.9999 93.3729C47.7278 93.3729 45.7628 92.1443 44.6649 90.3379C39.597 92.5422 34.1935 94.1657 28.5249 95.0986C35.037 98.2057 42.3035 100 49.9999 100C56.0056 100 61.7399 98.8815 67.0742 96.9422C62.7135 95.4286 58.5613 93.5093 54.6906 91.2107C53.5506 92.5229 51.8799 93.3729 49.9992 93.3729H49.9999Z" fill="white"/>
<path d="M31.4986 23.4757C31.0621 23.4757 30.6407 23.4286 30.2279 23.3443C28.5064 28.6193 27.5579 34.2065 27.5579 39.9929C27.5579 56.3993 35.025 71.185 46.9271 81.7072C47.8364 81.1879 48.8771 80.8679 49.9957 80.8679C51.3036 80.8679 52.5136 81.2664 53.5114 81.9514C63.5286 75.2264 71.2757 65.82 75.5679 54.8593C74.1393 53.7165 73.2043 51.9765 73.2043 49.9972C73.2043 48.4815 73.7629 47.1122 74.6586 46.0307C66.1929 33.4836 52.6986 24.1772 36.7814 20.53C35.6779 22.2965 33.7357 23.475 31.4986 23.475V23.4757Z" fill="white"/>
<path d="M44.7886 0.271429C41.0907 3.86786 37.8636 7.87786 35.2593 12.2557C36.0843 12.8814 36.7493 13.6929 37.1843 14.6436C41.3579 13.8643 45.6678 13.4429 50.0843 13.4429C58.8914 13.4429 67.2807 15.0907 74.9514 18.0371C75.3071 17.6707 75.6979 17.3536 76.1293 17.0807C74.4321 12.3686 72.1071 7.92571 69.2264 3.83786C63.3029 1.37214 56.8107 0 50 0C48.2379 0 46.5 0.0978571 44.7886 0.271429Z" fill="white"/>
<path d="M25.4179 15.8307C26.0557 13.0521 28.5279 10.9757 31.5 10.9757C31.7822 10.9757 32.0522 11.0214 32.325 11.0564C34.4007 7.50567 36.8529 4.17495 39.6193 1.09424C29.24 3.28495 20.0836 8.72567 13.1743 16.2628C16.0222 15.9092 18.9036 15.6678 21.8507 15.6678C23.0522 15.6635 24.2279 15.7714 25.4186 15.8314L25.4179 15.8307Z" fill="white"/>
</svg>
